<svg width="250" height="136" viewBox="0 0 250 136" fill="none" xmlns="http://www.w3.org/2000/svg">
<rect y="0.929565" width="250" height="134.704" fill="black"/>
<rect x="16" y="10.8078" width="218" height="115.845" fill="#FDFDFD"/>
<line y1="-1" x2="122.135" y2="-1" transform="matrix(0.00824828 0.999966 -0.999978 0.00665188 121 9.01178)" stroke="black" stroke-width="2"/>
<ellipse cx="67" cy="10.8078" rx="54" ry="8.08222" fill="white"/>
<ellipse cx="177.5" cy="126.653" rx="53.5" ry="8.08222" fill="white"/>
<path d="M58.0739 92.1565H52.5341L68.5568 48.5201H74.0114L90.0341 92.1565H84.4943L71.4545 55.4235H71.1136L58.0739 92.1565ZM60.1193 75.111H82.4489V79.7985H60.1193V75.111Z" fill="black"/>
<path d="M159.284 93.9525V50.3161H174.54C177.58 50.3161 180.087 50.8417 182.061 51.8929C184.036 52.9298 185.506 54.3289 186.472 56.0903C187.438 57.8375 187.92 59.7764 187.92 61.9071C187.92 63.7821 187.587 65.3304 186.919 66.5519C186.266 67.7735 185.399 68.7394 184.32 69.4497C183.254 70.1599 182.097 70.6855 180.847 71.0264V71.4525C182.182 71.5377 183.524 72.0065 184.874 72.8588C186.223 73.711 187.352 74.9326 188.261 76.5235C189.17 78.1144 189.625 80.0605 189.625 82.3616C189.625 84.5491 189.128 86.5164 188.134 88.2636C187.139 90.0108 185.57 91.3957 183.425 92.4184C181.28 93.4412 178.489 93.9525 175.051 93.9525H159.284ZM164.568 89.265H175.051C178.503 89.265 180.953 88.5974 182.402 87.2622C183.865 85.9127 184.597 84.2792 184.597 82.3616C184.597 80.8843 184.22 79.5207 183.467 78.2707C182.714 77.0065 181.642 75.998 180.25 75.2451C178.858 74.4781 177.21 74.0946 175.307 74.0946H164.568V89.265ZM164.568 69.4923H174.369C175.96 69.4923 177.395 69.1798 178.673 68.5548C179.966 67.9298 180.989 67.0491 181.741 65.9127C182.509 64.7764 182.892 63.4411 182.892 61.9071C182.892 59.9894 182.224 58.363 180.889 57.0278C179.554 55.6784 177.438 55.0036 174.54 55.0036H164.568V69.4923Z" fill="black"/>
</svg>
