<svg width="192" height="133" viewBox="0 0 192 133" fill="none" xmlns="http://www.w3.org/2000/svg">
<mask id="path-1-outside-1_34_1030" maskUnits="userSpaceOnUse" x="4" y="93.0688" width="179" height="39" fill="black">
<rect fill="white" x="4" y="93.0688" width="179" height="39"/>
<path d="M31.45 95.2688L31.4 97.1188L7.9 128.219H31.45V130.069H5.6V128.219L29.05 97.1188H6.15V95.2688H31.45ZM43.5117 95.2688H68.0117V97.1188H45.3617V111.219H65.0617V113.069H45.3617V128.219H68.0117V130.069H43.5117V95.2688ZM103.823 95.2688V97.1188H93.4234V128.219H103.823V130.069H81.2734V128.219H91.6234V97.1188H81.2734V95.2688H103.823ZM129.535 94.5188C132.135 94.5188 134.535 95.1688 136.735 96.4688C138.935 97.7355 140.668 99.4688 141.935 101.669C143.235 103.869 143.885 106.269 143.885 108.869V116.469C143.885 119.069 143.235 121.469 141.935 123.669C140.668 125.869 138.935 127.619 136.735 128.919C134.535 130.186 132.135 130.819 129.535 130.819C126.935 130.819 124.535 130.186 122.335 128.919C120.135 127.619 118.385 125.869 117.085 123.669C115.818 121.469 115.185 119.069 115.185 116.469V108.869C115.185 106.269 115.818 103.869 117.085 101.669C118.385 99.4688 120.135 97.7355 122.335 96.4688C124.535 95.1688 126.935 94.5188 129.535 94.5188ZM117.035 116.469C117.035 118.736 117.585 120.836 118.685 122.769C119.818 124.669 121.335 126.186 123.235 127.319C125.168 128.419 127.268 128.969 129.535 128.969C131.802 128.969 133.885 128.419 135.785 127.319C137.718 126.186 139.235 124.669 140.335 122.769C141.468 120.836 142.035 118.736 142.035 116.469V108.869C142.035 106.602 141.468 104.519 140.335 102.619C139.235 100.686 137.718 99.1688 135.785 98.0688C133.885 96.9355 131.802 96.3688 129.535 96.3688C127.268 96.3688 125.168 96.9355 123.235 98.0688C121.335 99.1688 119.818 100.686 118.685 102.619C117.585 104.519 117.035 106.602 117.035 108.869V116.469ZM152.947 130.069V95.2688H154.897L179.197 118.869V95.2688H181.047V130.069H179.197V121.469L154.797 97.6688V130.069H152.947Z"/>
</mask>
<path d="M31.45 95.2688L31.4 97.1188L7.9 128.219H31.45V130.069H5.6V128.219L29.05 97.1188H6.15V95.2688H31.45ZM43.5117 95.2688H68.0117V97.1188H45.3617V111.219H65.0617V113.069H45.3617V128.219H68.0117V130.069H43.5117V95.2688ZM103.823 95.2688V97.1188H93.4234V128.219H103.823V130.069H81.2734V128.219H91.6234V97.1188H81.2734V95.2688H103.823ZM129.535 94.5188C132.135 94.5188 134.535 95.1688 136.735 96.4688C138.935 97.7355 140.668 99.4688 141.935 101.669C143.235 103.869 143.885 106.269 143.885 108.869V116.469C143.885 119.069 143.235 121.469 141.935 123.669C140.668 125.869 138.935 127.619 136.735 128.919C134.535 130.186 132.135 130.819 129.535 130.819C126.935 130.819 124.535 130.186 122.335 128.919C120.135 127.619 118.385 125.869 117.085 123.669C115.818 121.469 115.185 119.069 115.185 116.469V108.869C115.185 106.269 115.818 103.869 117.085 101.669C118.385 99.4688 120.135 97.7355 122.335 96.4688C124.535 95.1688 126.935 94.5188 129.535 94.5188ZM117.035 116.469C117.035 118.736 117.585 120.836 118.685 122.769C119.818 124.669 121.335 126.186 123.235 127.319C125.168 128.419 127.268 128.969 129.535 128.969C131.802 128.969 133.885 128.419 135.785 127.319C137.718 126.186 139.235 124.669 140.335 122.769C141.468 120.836 142.035 118.736 142.035 116.469V108.869C142.035 106.602 141.468 104.519 140.335 102.619C139.235 100.686 137.718 99.1688 135.785 98.0688C133.885 96.9355 131.802 96.3688 129.535 96.3688C127.268 96.3688 125.168 96.9355 123.235 98.0688C121.335 99.1688 119.818 100.686 118.685 102.619C117.585 104.519 117.035 106.602 117.035 108.869V116.469ZM152.947 130.069V95.2688H154.897L179.197 118.869V95.2688H181.047V130.069H179.197V121.469L154.797 97.6688V130.069H152.947Z" fill="white"/>
<path d="M31.45 95.2688L32.4496 95.2959L32.4774 94.2688H31.45V95.2688ZM31.4 97.1188L32.1978 97.7217L32.391 97.4661L32.3996 97.1459L31.4 97.1188ZM7.9 128.219L7.10216 127.616L5.89099 129.219H7.9V128.219ZM31.45 128.219H32.45V127.219H31.45V128.219ZM31.45 130.069V131.069H32.45V130.069H31.45ZM5.6 130.069H4.6V131.069H5.6V130.069ZM5.6 128.219L4.80154 127.617L4.6 127.884V128.219H5.6ZM29.05 97.1188L29.8485 97.7209L31.0564 96.1188H29.05V97.1188ZM6.15 97.1188H5.15V98.1188H6.15V97.1188ZM6.15 95.2688V94.2688H5.15V95.2688H6.15ZM30.4504 95.2418L30.4004 97.0918L32.3996 97.1459L32.4496 95.2959L30.4504 95.2418ZM30.6022 96.516L7.10216 127.616L8.69784 128.822L32.1978 97.7217L30.6022 96.516ZM7.9 129.219H31.45V127.219H7.9V129.219ZM30.45 128.219V130.069H32.45V128.219H30.45ZM31.45 129.069H5.6V131.069H31.45V129.069ZM6.6 130.069V128.219H4.6V130.069H6.6ZM6.39846 128.821L29.8485 97.7209L28.2515 96.5168L4.80154 127.617L6.39846 128.821ZM29.05 96.1188H6.15V98.1188H29.05V96.1188ZM7.15 97.1188V95.2688H5.15V97.1188H7.15ZM6.15 96.2688H31.45V94.2688H6.15V96.2688ZM43.5117 95.2688V94.2688H42.5117V95.2688H43.5117ZM68.0117 95.2688H69.0117V94.2688H68.0117V95.2688ZM68.0117 97.1188V98.1188H69.0117V97.1188H68.0117ZM45.3617 97.1188V96.1188H44.3617V97.1188H45.3617ZM45.3617 111.219H44.3617V112.219H45.3617V111.219ZM65.0617 111.219H66.0617V110.219H65.0617V111.219ZM65.0617 113.069V114.069H66.0617V113.069H65.0617ZM45.3617 113.069V112.069H44.3617V113.069H45.3617ZM45.3617 128.219H44.3617V129.219H45.3617V128.219ZM68.0117 128.219H69.0117V127.219H68.0117V128.219ZM68.0117 130.069V131.069H69.0117V130.069H68.0117ZM43.5117 130.069H42.5117V131.069H43.5117V130.069ZM43.5117 96.2688H68.0117V94.2688H43.5117V96.2688ZM67.0117 95.2688V97.1188H69.0117V95.2688H67.0117ZM68.0117 96.1188H45.3617V98.1188H68.0117V96.1188ZM44.3617 97.1188V111.219H46.3617V97.1188H44.3617ZM45.3617 112.219H65.0617V110.219H45.3617V112.219ZM64.0617 111.219V113.069H66.0617V111.219H64.0617ZM65.0617 112.069H45.3617V114.069H65.0617V112.069ZM44.3617 113.069V128.219H46.3617V113.069H44.3617ZM45.3617 129.219H68.0117V127.219H45.3617V129.219ZM67.0117 128.219V130.069H69.0117V128.219H67.0117ZM68.0117 129.069H43.5117V131.069H68.0117V129.069ZM44.5117 130.069V95.2688H42.5117V130.069H44.5117ZM103.823 95.2688H104.823V94.2688H103.823V95.2688ZM103.823 97.1188V98.1188H104.823V97.1188H103.823ZM93.4234 97.1188V96.1188H92.4234V97.1188H93.4234ZM93.4234 128.219H92.4234V129.219H93.4234V128.219ZM103.823 128.219H104.823V127.219H103.823V128.219ZM103.823 130.069V131.069H104.823V130.069H103.823ZM81.2734 130.069H80.2734V131.069H81.2734V130.069ZM81.2734 128.219V127.219H80.2734V128.219H81.2734ZM91.6234 128.219V129.219H92.6234V128.219H91.6234ZM91.6234 97.1188H92.6234V96.1188H91.6234V97.1188ZM81.2734 97.1188H80.2734V98.1188H81.2734V97.1188ZM81.2734 95.2688V94.2688H80.2734V95.2688H81.2734ZM102.823 95.2688V97.1188H104.823V95.2688H102.823ZM103.823 96.1188H93.4234V98.1188H103.823V96.1188ZM92.4234 97.1188V128.219H94.4234V97.1188H92.4234ZM93.4234 129.219H103.823V127.219H93.4234V129.219ZM102.823 128.219V130.069H104.823V128.219H102.823ZM103.823 129.069H81.2734V131.069H103.823V129.069ZM82.2734 130.069V128.219H80.2734V130.069H82.2734ZM81.2734 129.219H91.6234V127.219H81.2734V129.219ZM92.6234 128.219V97.1188H90.6234V128.219H92.6234ZM91.6234 96.1188H81.2734V98.1188H91.6234V96.1188ZM82.2734 97.1188V95.2688H80.2734V97.1188H82.2734ZM81.2734 96.2688H103.823V94.2688H81.2734V96.2688ZM136.735 96.4688L136.226 97.3298L136.236 97.3355L136.735 96.4688ZM141.935 101.669L141.068 102.168L141.074 102.178L141.935 101.669ZM141.935 123.669L141.074 123.16L141.069 123.17L141.935 123.669ZM136.735 128.919L137.234 129.786L137.244 129.78L136.735 128.919ZM122.335 128.919L121.826 129.78L121.836 129.785L122.335 128.919ZM117.085 123.669L116.218 124.168L116.224 124.178L117.085 123.669ZM117.085 101.669L116.224 101.16L116.219 101.17L117.085 101.669ZM122.335 96.4688L122.834 97.3355L122.844 97.3298L122.335 96.4688ZM118.685 122.769L117.816 123.263L117.821 123.272L117.826 123.281L118.685 122.769ZM123.235 127.319L122.723 128.178L122.732 128.183L122.741 128.188L123.235 127.319ZM135.785 127.319L136.286 128.184L136.291 128.182L135.785 127.319ZM140.335 122.769L139.472 122.263L139.47 122.268L140.335 122.769ZM140.335 102.619L139.466 103.113L139.471 103.122L139.476 103.131L140.335 102.619ZM135.785 98.0688L135.273 98.9277L135.282 98.9329L135.291 98.938L135.785 98.0688ZM123.235 98.0688L123.736 98.9343L123.741 98.9315L123.235 98.0688ZM118.685 102.619L117.822 102.113L117.82 102.118L118.685 102.619ZM129.535 95.5188C131.959 95.5188 134.183 96.1225 136.226 97.3298L137.244 95.6079C134.887 94.2152 132.311 93.5188 129.535 93.5188V95.5188ZM136.236 97.3355C138.283 98.5141 139.89 100.121 141.069 102.168L142.802 101.17C141.447 98.8171 139.587 96.9569 137.234 95.6022L136.236 97.3355ZM141.074 102.178C142.282 104.221 142.885 106.445 142.885 108.869H144.885C144.885 106.093 144.189 103.517 142.796 101.16L141.074 102.178ZM142.885 108.869V116.469H144.885V108.869H142.885ZM142.885 116.469C142.885 118.893 142.282 121.117 141.074 123.16L142.796 124.178C144.189 121.821 144.885 119.245 144.885 116.469H142.885ZM141.069 123.17C139.889 125.219 138.279 126.845 136.226 128.058L137.244 129.78C139.591 128.393 141.448 126.518 142.802 124.168L141.069 123.17ZM136.236 128.052C134.192 129.229 131.964 129.819 129.535 129.819V131.819C132.306 131.819 134.879 131.142 137.234 129.785L136.236 128.052ZM129.535 129.819C127.106 129.819 124.879 129.229 122.834 128.052L121.836 129.785C124.192 131.142 126.764 131.819 129.535 131.819V129.819ZM122.844 128.058C120.789 126.844 119.16 125.215 117.946 123.16L116.224 124.178C117.61 126.523 119.481 128.394 121.826 129.78L122.844 128.058ZM117.952 123.17C116.775 121.125 116.185 118.898 116.185 116.469H114.185C114.185 119.24 114.862 121.812 116.219 124.168L117.952 123.17ZM116.185 116.469V108.869H114.185V116.469H116.185ZM116.185 108.869C116.185 106.44 116.775 104.212 117.952 102.168L116.219 101.17C114.862 103.525 114.185 106.098 114.185 108.869H116.185ZM117.946 102.178C119.159 100.125 120.785 98.5155 122.834 97.3355L121.836 95.6022C119.486 96.9556 117.611 98.8126 116.224 101.16L117.946 102.178ZM122.844 97.3298C124.887 96.1225 127.111 95.5188 129.535 95.5188V93.5188C126.759 93.5188 124.183 94.2152 121.826 95.6079L122.844 97.3298ZM116.035 116.469C116.035 118.905 116.629 121.176 117.816 123.263L119.554 122.274C118.542 120.495 118.035 118.566 118.035 116.469H116.035ZM117.826 123.281C119.045 125.324 120.68 126.959 122.723 128.178L123.747 126.46C121.99 125.412 120.592 124.014 119.544 122.257L117.826 123.281ZM122.741 128.188C124.828 129.375 127.099 129.969 129.535 129.969V127.969C127.438 127.969 125.509 127.462 123.73 126.45L122.741 128.188ZM129.535 129.969C131.972 129.969 134.229 129.375 136.286 128.184L135.284 126.453C133.541 127.462 131.632 127.969 129.535 127.969V129.969ZM136.291 128.182C138.37 126.963 140.012 125.323 141.201 123.27L139.47 122.268C138.458 124.015 137.067 125.408 135.279 126.456L136.291 128.182ZM141.198 123.275C142.422 121.186 143.035 118.911 143.035 116.469H141.035C141.035 118.56 140.515 120.485 139.472 122.263L141.198 123.275ZM143.035 116.469V108.869H141.035V116.469H143.035ZM143.035 108.869C143.035 106.426 142.422 104.165 141.194 102.107L139.476 103.131C140.515 104.872 141.035 106.778 141.035 108.869H143.035ZM141.204 102.124C140.015 100.035 138.369 98.3886 136.28 97.1997L135.291 98.938C137.068 99.9491 138.455 101.336 139.466 103.113L141.204 102.124ZM136.297 97.21C134.239 95.9819 131.978 95.3688 129.535 95.3688V97.3688C131.626 97.3688 133.532 97.8891 135.273 98.9277L136.297 97.21ZM129.535 95.3688C127.093 95.3688 124.818 95.9818 122.729 97.2061L123.741 98.9315C125.519 97.8892 127.444 97.3688 129.535 97.3688V95.3688ZM122.734 97.2034C120.681 98.3919 119.041 100.034 117.822 102.113L119.548 103.125C120.596 101.337 121.989 99.9458 123.736 98.9343L122.734 97.2034ZM117.82 102.118C116.629 104.175 116.035 106.432 116.035 108.869H118.035C118.035 106.772 118.542 104.863 119.551 103.12L117.82 102.118ZM116.035 108.869V116.469H118.035V108.869H116.035ZM152.947 130.069H151.947V131.069H152.947V130.069ZM152.947 95.2688V94.2688H151.947V95.2688H152.947ZM154.897 95.2688L155.594 94.5515L155.303 94.2688H154.897V95.2688ZM179.197 118.869L178.5 119.586L180.197 121.234V118.869H179.197ZM179.197 95.2688V94.2688H178.197V95.2688H179.197ZM181.047 95.2688H182.047V94.2688H181.047V95.2688ZM181.047 130.069V131.069H182.047V130.069H181.047ZM179.197 130.069H178.197V131.069H179.197V130.069ZM179.197 121.469H180.197V121.047L179.895 120.753L179.197 121.469ZM154.797 97.6688L155.495 96.953L153.797 95.2965V97.6688H154.797ZM154.797 130.069V131.069H155.797V130.069H154.797ZM153.947 130.069V95.2688H151.947V130.069H153.947ZM152.947 96.2688H154.897V94.2688H152.947V96.2688ZM154.2 95.9862L178.5 119.586L179.894 118.151L155.594 94.5515L154.2 95.9862ZM180.197 118.869V95.2688H178.197V118.869H180.197ZM179.197 96.2688H181.047V94.2688H179.197V96.2688ZM180.047 95.2688V130.069H182.047V95.2688H180.047ZM181.047 129.069H179.197V131.069H181.047V129.069ZM180.197 130.069V121.469H178.197V130.069H180.197ZM179.895 120.753L155.495 96.953L154.099 98.3847L178.499 122.185L179.895 120.753ZM153.797 97.6688V130.069H155.797V97.6688H153.797ZM154.797 129.069H152.947V131.069H154.797V129.069Z" fill="white" mask="url(#path-1-outside-1_34_1030)"/>
<rect x="0.86014" width="66.5053" height="66.5053" transform="matrix(0.86014 -0.510057 0.86014 0.510057 37.9465 43.9915)" fill="#0A0909" stroke="black"/>
<rect x="0.86014" width="66.2964" height="64.7313" transform="matrix(0.86014 -0.510057 0.86014 0.510057 38.8 35.4185)" fill="white" stroke="black"/>
<rect x="0.86014" width="46.3633" height="46.8082" rx="4.5" transform="matrix(0.86014 -0.510057 0.86014 0.510057 55.0803 35.4114)" fill="#F19B9B" stroke="black"/>
<rect x="0.86014" width="42.8209" height="42.8209" rx="4.5" transform="matrix(0.86014 -0.510057 0.86014 0.510057 58.9611 31.427)" fill="#080674" stroke="black"/>
<path d="M47.5149 37.1397L43.0739 34.5374L47.5149 31.935V37.1397Z" fill="#BFBD94" stroke="black"/>
</svg>
