<svg width="100" height="90" viewBox="0 0 100 90" fill="none" xmlns="http://www.w3.org/2000/svg">
<path fill-rule="evenodd" clip-rule="evenodd" d="M50 69.2931C65.4639 69.2931 78 58.4375 78 45.0465C78 31.6554 65.4639 20.7998 50 20.7998C34.536 20.7998 22 31.6554 22 45.0465C22 58.4375 34.536 69.2931 50 69.2931ZM50 61.2109C60.3091 61.2109 68.6667 53.9737 68.6667 45.0465C68.6667 36.1191 60.3091 28.882 50 28.882C39.6907 28.882 31.3333 36.1191 31.3333 45.0465C31.3333 53.9737 39.6907 61.2109 50 61.2109Z" fill="white"/>
<path fill-rule="evenodd" clip-rule="evenodd" d="M2.97255 13.5179C0 18.7569 0 25.6152 0 39.3318V50.7612C0 64.4777 0 71.3361 2.97255 76.5749C5.58727 81.1834 9.75945 84.9302 14.8912 87.2781C20.7251 89.9477 28.3622 89.9477 43.6364 89.9477H56.3636C71.6377 89.9477 79.275 89.9477 85.1086 87.2781C90.2405 84.9302 94.4127 81.1834 97.0273 76.5749C100 71.3361 100 64.4777 100 50.7612V39.3318C100 25.6152 100 18.7569 97.0273 13.5179C94.4127 8.90949 90.2405 5.16277 85.1086 2.81468C79.275 0.145264 71.6377 0.145264 56.3636 0.145264H43.6364C28.3622 0.145264 20.7251 0.145264 14.8912 2.81468C9.75945 5.16277 5.58727 8.90949 2.97255 13.5179ZM56.3636 8.30912H43.6364C35.8493 8.30912 30.5557 8.31549 26.464 8.61567C22.4784 8.9081 20.4402 9.43814 19.0184 10.0887C15.5972 11.6541 12.8158 14.152 11.0726 17.2242C10.3481 18.501 9.75791 20.3314 9.43227 23.9106C9.098 27.585 9.09091 32.3388 9.09091 39.3318V50.7612C9.09091 57.7543 9.098 62.5077 9.43227 66.1823C9.75791 69.7617 10.3481 71.5921 11.0726 72.8689C12.8158 75.941 15.5972 78.4387 19.0184 80.0041C20.4402 80.6548 22.4784 81.185 26.464 81.4773C30.5557 81.7773 35.8493 81.7838 43.6364 81.7838H56.3636C64.1509 81.7838 69.4441 81.7773 73.5359 81.4773C77.5218 81.185 79.56 80.6548 80.9818 80.0041C84.4027 78.4387 87.1841 75.941 88.9273 72.8689C89.6518 71.5921 90.2423 69.7617 90.5677 66.1823C90.9018 62.5077 90.9091 57.7543 90.9091 50.7612V39.3318C90.9091 32.3388 90.9018 27.585 90.5677 23.9106C90.2423 20.3314 89.6518 18.501 88.9273 17.2242C87.1841 14.152 84.4027 11.6541 80.9818 10.0887C79.56 9.43814 77.5218 8.9081 73.5359 8.61567C69.4441 8.31549 64.1509 8.30912 56.3636 8.30912Z" fill="white"/>
<path d="M77 17.2078C74.2385 17.2078 72 18.816 72 20.7999C72 22.7837 74.2385 24.392 77 24.392C79.7615 24.392 82 22.7837 82 20.7999C82 18.816 79.7615 17.2078 77 17.2078Z" fill="white"/>
</svg>
