<svg width="100" height="90" viewBox="0 0 100 90" fill="none" xmlns="http://www.w3.org/2000/svg">
<path fill-rule="evenodd" clip-rule="evenodd" d="M31.45 89.9477C69.185 89.9477 89.825 55.3933 89.825 25.4315C89.825 24.4479 89.825 23.4717 89.765 22.4991C93.78 19.294 97.245 15.3145 100 10.7612C96.26 12.5958 92.285 13.7989 88.22 14.3294C92.5 11.4946 95.705 7.04092 97.24 1.78572C93.21 4.42713 88.805 6.29132 84.21 7.29157C76.44 -1.83736 63.445 -2.27966 55.18 6.30769C49.855 11.8447 47.59 20.1003 49.245 27.9748C32.75 27.0575 17.38 18.4482 6.96 4.28514C1.515 14.6463 4.3 27.8962 13.315 34.5495C10.05 34.4444 6.855 33.4729 4 31.7157V32.0034C4.005 42.7957 10.89 52.0884 20.46 54.2269C17.44 55.1387 14.27 55.2709 11.2 54.6133C13.885 63.8527 21.59 70.1811 30.365 70.3635C23.1 76.6741 14.125 80.1008 4.885 80.0898C3.255 80.0843 1.625 79.9791 0 79.7637C9.385 86.4169 20.3 89.9478 31.45 89.9313" fill="white"/>
</svg>
