<svg width="75" height="69" viewBox="0 0 75 69" fill="none" xmlns="http://www.w3.org/2000/svg">
<path d="M70.8333 0.921631H4.16667C3.0616 0.921631 2.00179 1.31585 1.22039 2.01757C0.438987 2.71929 0 3.67102 0 4.6634V64.5317C0 65.5241 0.438987 66.4758 1.22039 67.1775C2.00179 67.8792 3.0616 68.2735 4.16667 68.2735H40.0625V42.2308H30.3208V32.0344H40.0625V24.5509C40.0625 15.8513 45.9792 11.1105 54.6458 11.1105C57.5583 11.103 60.475 11.2377 63.375 11.5108V20.5659H57.3958C52.6958 20.5659 51.7792 22.579 51.7792 25.5238V32.0157H63.0167L61.5583 42.212H51.775V68.2735H70.8333C71.9384 68.2735 72.9982 67.8792 73.7796 67.1775C74.561 66.4758 75 65.5241 75 64.5317V4.6634C75 3.67102 74.561 2.71929 73.7796 2.01757C72.9982 1.31585 71.9384 0.921631 70.8333 0.921631Z" fill="white"/>
</svg>
