<svg width="100" height="90" viewBox="0 0 100 90" fill="none" xmlns="http://www.w3.org/2000/svg">
<path fill-rule="evenodd" clip-rule="evenodd" d="M79.1051 63.5507C77.9001 66.6139 73.11 69.1479 69.29 69.889C66.675 70.3876 63.265 70.782 51.775 66.5061C38.87 61.7047 20.95 44.6018 20.95 33.2204C20.95 27.4264 24.67 20.6797 31.175 20.6797C34.305 20.6797 34.995 20.7345 36.025 22.9532C37.23 25.5673 40.17 32.0077 40.52 32.668C41.965 35.3763 39.05 36.9618 36.935 39.3198C36.26 40.0294 35.495 40.7969 36.35 42.1174C37.2 43.4109 40.14 47.7138 44.46 51.1678C50.04 55.6323 54.565 57.0576 56.185 57.664C57.39 58.1131 58.83 58.0085 59.71 57.1641C60.825 56.0817 62.21 54.2858 63.62 52.5161C64.615 51.2495 65.8801 51.0914 67.205 51.5405C68.1 51.819 79.475 56.5629 79.955 57.322C80.31 57.8744 80.3101 60.4875 79.1051 63.5507ZM50.01 0.145264H49.985C22.42 0.145264 0 20.285 0 45.0465C0 54.8649 3.52503 63.9739 9.52003 71.3624L3.29002 88.0469L22.505 82.5329C30.41 87.231 39.845 89.9477 50.01 89.9477C77.575 89.9477 100 69.8079 100 45.0465C100 20.285 77.575 0.145264 50.01 0.145264Z" fill="white"/>
</svg>
